  0
SECTION
  2
HEADER
  9
$ACADVER
  1
AC1009
  9
$FILLMODE
 70
 0
  9
$SPLFRAME
 70
 1
  9
$EXTMIN
 10
0
 20
0
 30
0.0
  9
$EXTMAX
 10
1058.33
 20
1058.33
 30
0.0
  0
ENDSEC
  0
SECTION
  2
TABLES
  0
TABLE
  2
LAYER
 70
1
  0
LAYER
  2
0
 70
     0
 62
     7
  6
CONTINUOUS
  0
ENDTAB
  0
ENDSEC
  0
SECTION
  2
ENTITIES
  0
LINE
  8
0
 62
     0
 10
0.0950846
 20
95.5075
 30
0.0
 11
128.683
 21
95.5075
 31
0.0
  0
LINE
  8
0
 62
     0
 10
128.683
 20
95.5075
 30
0.0
 11
128.683
 21
0.257693
 31
0.0
  0
LINE
  8
0
 62
     0
 10
128.683
 20
0.257693
 30
0.0
 11
0.0950846
 21
0.257693
 31
0.0
  0
LINE
  8
0
 62
     0
 10
0.0950846
 20
0.257693
 30
0.0
 11
0.0950846
 21
95.5075
 31
0.0
  0
LINE
  8
0
 62
     0
 10
85.9621
 20
16.7831
 30
0.0
 11
85.9621
 21
12.0826
 31
0.0
  0
LINE
  8
0
 62
     0
 10
85.9621
 20
12.0826
 30
0.0
 11
84.4381
 21
12.0826
 31
0.0
  0
LINE
  8
0
 62
     0
 10
84.4381
 20
12.0826
 30
0.0
 11
84.4381
 21
15.3128
 31
0.0
  0
LINE
  8
0
 62
     0
 10
84.4381
 20
15.3128
 30
0.0
 11
77.687
 21
15.3128
 31
0.0
  0
LINE
  8
0
 62
     0
 10
77.687
 20
15.3128
 30
0.0
 11
77.687
 21
12.0826
 31
0.0
  0
LINE
  8
0
 62
     0
 10
77.687
 20
12.0826
 30
0.0
 11
76.8629
 21
12.0826
 31
0.0
  0
LINE
  8
0
 62
     0
 10
76.8629
 20
12.0826
 30
0.0
 11
76.8629
 21
9.28384
 31
0.0
  0
LINE
  8
0
 62
     0
 10
76.8629
 20
9.28384
 30
0.0
 11
77.687
 21
9.28384
 31
0.0
  0
LINE
  8
0
 62
     0
 10
77.687
 20
9.28384
 30
0.0
 11
77.687
 21
3.01377
 31
0.0
  0
LINE
  8
0
 62
     0
 10
77.687
 20
3.01377
 30
0.0
 11
79.412
 21
3.01377
 31
0.0
  0
LINE
  8
0
 62
     0
 10
79.412
 20
3.01377
 30
0.0
 11
79.412
 21
1.8135
 31
0.0
  0
LINE
  8
0
 62
     0
 10
79.412
 20
1.8135
 30
0.0
 11
82.7126
 21
1.8135
 31
0.0
  0
LINE
  8
0
 62
     0
 10
82.7126
 20
1.8135
 30
0.0
 11
82.7126
 21
3.01377
 31
0.0
  0
LINE
  8
0
 62
     0
 10
82.7126
 20
3.01377
 30
0.0
 11
84.4381
 21
3.01377
 31
0.0
  0
LINE
  8
0
 62
     0
 10
84.4381
 20
3.01377
 30
0.0
 11
84.4381
 21
7.48411
 31
0.0
  0
LINE
  8
0
 62
     0
 10
84.4381
 20
7.48411
 30
0.0
 11
85.9621
 21
7.48411
 31
0.0
  0
LINE
  8
0
 62
     0
 10
85.9621
 20
7.48411
 30
0.0
 11
85.9621
 21
2.78364
 31
0.0
  0
LINE
  8
0
 62
     0
 10
85.9621
 20
2.78364
 30
0.0
 11
99.9628
 21
2.78364
 31
0.0
  0
LINE
  8
0
 62
     0
 10
99.9628
 20
2.78364
 30
0.0
 11
99.9628
 21
7.48411
 31
0.0
  0
LINE
  8
0
 62
     0
 10
99.9628
 20
7.48411
 30
0.0
 11
101.487
 21
7.48411
 31
0.0
  0
LINE
  8
0
 62
     0
 10
101.487
 20
7.48411
 30
0.0
 11
101.487
 21
3.01377
 31
0.0
  0
LINE
  8
0
 62
     0
 10
101.487
 20
3.01377
 30
0.0
 11
103.212
 21
3.01377
 31
0.0
  0
LINE
  8
0
 62
     0
 10
103.212
 20
3.01377
 30
0.0
 11
103.212
 21
1.8135
 31
0.0
  0
LINE
  8
0
 62
     0
 10
103.212
 20
1.8135
 30
0.0
 11
106.513
 21
1.8135
 31
0.0
  0
LINE
  8
0
 62
     0
 10
106.513
 20
1.8135
 30
0.0
 11
106.513
 21
3.01377
 31
0.0
  0
LINE
  8
0
 62
     0
 10
106.513
 20
3.01377
 30
0.0
 11
108.238
 21
3.01377
 31
0.0
  0
LINE
  8
0
 62
     0
 10
108.238
 20
3.01377
 30
0.0
 11
108.238
 21
9.28384
 31
0.0
  0
LINE
  8
0
 62
     0
 10
108.238
 20
9.28384
 30
0.0
 11
109.062
 21
9.28384
 31
0.0
  0
LINE
  8
0
 62
     0
 10
109.062
 20
9.28384
 30
0.0
 11
109.062
 21
12.0826
 31
0.0
  0
LINE
  8
0
 62
     0
 10
109.062
 20
12.0826
 30
0.0
 11
108.238
 21
12.0826
 31
0.0
  0
LINE
  8
0
 62
     0
 10
108.238
 20
12.0826
 30
0.0
 11
108.238
 21
15.3128
 31
0.0
  0
LINE
  8
0
 62
     0
 10
108.238
 20
15.3128
 30
0.0
 11
101.487
 21
15.3128
 31
0.0
  0
LINE
  8
0
 62
     0
 10
101.487
 20
15.3128
 30
0.0
 11
101.487
 21
12.0826
 31
0.0
  0
LINE
  8
0
 62
     0
 10
101.487
 20
12.0826
 30
0.0
 11
99.9628
 21
12.0826
 31
0.0
  0
LINE
  8
0
 62
     0
 10
99.9628
 20
12.0826
 30
0.0
 11
99.9628
 21
16.7831
 31
0.0
  0
LINE
  8
0
 62
     0
 10
99.9628
 20
16.7831
 30
0.0
 11
85.9621
 21
16.7831
 31
0.0
  0
LINE
  8
0
 62
     0
 10
5.00091
 20
16.7831
 30
0.0
 11
19.0004
 21
16.7831
 31
0.0
  0
LINE
  8
0
 62
     0
 10
19.0004
 20
16.7831
 30
0.0
 11
19.0004
 21
2.78364
 31
0.0
  0
LINE
  8
0
 62
     0
 10
19.0004
 20
2.78364
 30
0.0
 11
5.00091
 21
2.78364
 31
0.0
  0
LINE
  8
0
 62
     0
 10
5.00091
 20
2.78364
 30
0.0
 11
5.00091
 21
16.7831
 31
0.0
  0
LINE
  8
0
 62
     0
 10
28.812
 20
16.7831
 30
0.0
 11
42.8128
 21
16.7831
 31
0.0
  0
LINE
  8
0
 62
     0
 10
42.8128
 20
16.7831
 30
0.0
 11
42.8128
 21
2.78364
 31
0.0
  0
LINE
  8
0
 62
     0
 10
42.8128
 20
2.78364
 30
0.0
 11
28.812
 21
2.78364
 31
0.0
  0
LINE
  8
0
 62
     0
 10
28.812
 20
2.78364
 30
0.0
 11
28.812
 21
16.7831
 31
0.0
  0
LINE
  8
0
 62
     0
 10
52.626
 20
16.7831
 30
0.0
 11
66.6253
 21
16.7831
 31
0.0
  0
LINE
  8
0
 62
     0
 10
66.6253
 20
16.7831
 30
0.0
 11
66.6253
 21
2.78364
 31
0.0
  0
LINE
  8
0
 62
     0
 10
66.6253
 20
2.78364
 30
0.0
 11
52.626
 21
2.78364
 31
0.0
  0
LINE
  8
0
 62
     0
 10
52.626
 20
2.78364
 30
0.0
 11
52.626
 21
16.7831
 31
0.0
  0
LINE
  8
0
 62
     0
 10
9.76203
 20
35.833
 30
0.0
 11
23.7629
 21
35.833
 31
0.0
  0
LINE
  8
0
 62
     0
 10
23.7629
 20
35.833
 30
0.0
 11
23.7629
 21
21.8336
 31
0.0
  0
LINE
  8
0
 62
     0
 10
23.7629
 20
21.8336
 30
0.0
 11
9.76203
 21
21.8336
 31
0.0
  0
LINE
  8
0
 62
     0
 10
9.76203
 20
21.8336
 30
0.0
 11
9.76203
 21
35.833
 31
0.0
  0
LINE
  8
0
 62
     0
 10
35.9572
 20
35.833
 30
0.0
 11
49.9565
 21
35.833
 31
0.0
  0
LINE
  8
0
 62
     0
 10
49.9565
 20
35.833
 30
0.0
 11
49.9565
 21
21.8336
 31
0.0
  0
LINE
  8
0
 62
     0
 10
49.9565
 20
21.8336
 30
0.0
 11
35.9572
 21
21.8336
 31
0.0
  0
LINE
  8
0
 62
     0
 10
35.9572
 20
21.8336
 30
0.0
 11
35.9572
 21
35.833
 31
0.0
  0
LINE
  8
0
 62
     0
 10
55.0072
 20
35.833
 30
0.0
 11
69.0065
 21
35.833
 31
0.0
  0
LINE
  8
0
 62
     0
 10
69.0065
 20
35.833
 30
0.0
 11
69.0065
 21
21.8336
 31
0.0
  0
LINE
  8
0
 62
     0
 10
69.0065
 20
21.8336
 30
0.0
 11
55.0072
 21
21.8336
 31
0.0
  0
LINE
  8
0
 62
     0
 10
55.0072
 20
21.8336
 30
0.0
 11
55.0072
 21
35.833
 31
0.0
  0
LINE
  8
0
 62
     0
 10
74.0572
 20
35.833
 30
0.0
 11
88.0565
 21
35.833
 31
0.0
  0
LINE
  8
0
 62
     0
 10
88.0565
 20
35.833
 30
0.0
 11
88.0565
 21
21.8336
 31
0.0
  0
LINE
  8
0
 62
     0
 10
88.0565
 20
21.8336
 30
0.0
 11
74.0572
 21
21.8336
 31
0.0
  0
LINE
  8
0
 62
     0
 10
74.0572
 20
21.8336
 30
0.0
 11
74.0572
 21
35.833
 31
0.0
  0
LINE
  8
0
 62
     0
 10
93.1072
 20
35.833
 30
0.0
 11
107.107
 21
35.833
 31
0.0
  0
LINE
  8
0
 62
     0
 10
107.107
 20
35.833
 30
0.0
 11
107.107
 21
21.8336
 31
0.0
  0
LINE
  8
0
 62
     0
 10
107.107
 20
21.8336
 30
0.0
 11
93.1072
 21
21.8336
 31
0.0
  0
LINE
  8
0
 62
     0
 10
93.1072
 20
21.8336
 30
0.0
 11
93.1072
 21
35.833
 31
0.0
  0
LINE
  8
0
 62
     0
 10
112.157
 20
35.833
 30
0.0
 11
126.157
 21
35.833
 31
0.0
  0
LINE
  8
0
 62
     0
 10
126.157
 20
35.833
 30
0.0
 11
126.157
 21
21.8336
 31
0.0
  0
LINE
  8
0
 62
     0
 10
126.157
 20
21.8336
 30
0.0
 11
112.157
 21
21.8336
 31
0.0
  0
LINE
  8
0
 62
     0
 10
112.157
 20
21.8336
 30
0.0
 11
112.157
 21
35.833
 31
0.0
  0
LINE
  8
0
 62
     0
 10
5.00091
 20
54.8831
 30
0.0
 11
19.0004
 21
54.8831
 31
0.0
  0
LINE
  8
0
 62
     0
 10
19.0004
 20
54.8831
 30
0.0
 11
19.0004
 21
40.8838
 31
0.0
  0
LINE
  8
0
 62
     0
 10
19.0004
 20
40.8838
 30
0.0
 11
5.00091
 21
40.8838
 31
0.0
  0
LINE
  8
0
 62
     0
 10
5.00091
 20
40.8838
 30
0.0
 11
5.00091
 21
54.8831
 31
0.0
  0
LINE
  8
0
 62
     0
 10
26.4322
 20
54.8831
 30
0.0
 11
40.4315
 21
54.8831
 31
0.0
  0
LINE
  8
0
 62
     0
 10
40.4315
 20
54.8831
 30
0.0
 11
40.4315
 21
40.8838
 31
0.0
  0
LINE
  8
0
 62
     0
 10
40.4315
 20
40.8838
 30
0.0
 11
26.4322
 21
40.8838
 31
0.0
  0
LINE
  8
0
 62
     0
 10
26.4322
 20
40.8838
 30
0.0
 11
26.4322
 21
54.8831
 31
0.0
  0
LINE
  8
0
 62
     0
 10
45.4822
 20
54.8831
 30
0.0
 11
59.4815
 21
54.8831
 31
0.0
  0
LINE
  8
0
 62
     0
 10
59.4815
 20
54.8831
 30
0.0
 11
59.4815
 21
40.8838
 31
0.0
  0
LINE
  8
0
 62
     0
 10
59.4815
 20
40.8838
 30
0.0
 11
45.4822
 21
40.8838
 31
0.0
  0
LINE
  8
0
 62
     0
 10
45.4822
 20
40.8838
 30
0.0
 11
45.4822
 21
54.8831
 31
0.0
  0
LINE
  8
0
 62
     0
 10
64.5322
 20
54.8831
 30
0.0
 11
78.5315
 21
54.8831
 31
0.0
  0
LINE
  8
0
 62
     0
 10
78.5315
 20
54.8831
 30
0.0
 11
78.5315
 21
40.8838
 31
0.0
  0
LINE
  8
0
 62
     0
 10
78.5315
 20
40.8838
 30
0.0
 11
64.5322
 21
40.8838
 31
0.0
  0
LINE
  8
0
 62
     0
 10
64.5322
 20
40.8838
 30
0.0
 11
64.5322
 21
54.8831
 31
0.0
  0
LINE
  8
0
 62
     0
 10
83.5822
 20
54.8831
 30
0.0
 11
97.5815
 21
54.8831
 31
0.0
  0
LINE
  8
0
 62
     0
 10
97.5815
 20
54.8831
 30
0.0
 11
97.5815
 21
40.8838
 31
0.0
  0
LINE
  8
0
 62
     0
 10
97.5815
 20
40.8838
 30
0.0
 11
83.5822
 21
40.8838
 31
0.0
  0
LINE
  8
0
 62
     0
 10
83.5822
 20
40.8838
 30
0.0
 11
83.5822
 21
54.8831
 31
0.0
  0
LINE
  8
0
 62
     0
 10
102.632
 20
54.8831
 30
0.0
 11
116.632
 21
54.8831
 31
0.0
  0
LINE
  8
0
 62
     0
 10
116.632
 20
54.8831
 30
0.0
 11
116.632
 21
40.8838
 31
0.0
  0
LINE
  8
0
 62
     0
 10
116.632
 20
40.8838
 30
0.0
 11
102.632
 21
40.8838
 31
0.0
  0
LINE
  8
0
 62
     0
 10
102.632
 20
40.8838
 30
0.0
 11
102.632
 21
54.8831
 31
0.0
  0
LINE
  8
0
 62
     0
 10
2.61965
 20
73.9331
 30
0.0
 11
16.6192
 21
73.9331
 31
0.0
  0
LINE
  8
0
 62
     0
 10
16.6192
 20
73.9331
 30
0.0
 11
16.6192
 21
59.9338
 31
0.0
  0
LINE
  8
0
 62
     0
 10
16.6192
 20
59.9338
 30
0.0
 11
2.61965
 21
59.9338
 31
0.0
  0
LINE
  8
0
 62
     0
 10
2.61965
 20
59.9338
 30
0.0
 11
2.61965
 21
73.9331
 31
0.0
  0
LINE
  8
0
 62
     0
 10
21.6697
 20
73.9331
 30
0.0
 11
35.669
 21
73.9331
 31
0.0
  0
LINE
  8
0
 62
     0
 10
35.669
 20
73.9331
 30
0.0
 11
35.669
 21
59.9338
 31
0.0
  0
LINE
  8
0
 62
     0
 10
35.669
 20
59.9338
 30
0.0
 11
21.6697
 21
59.9338
 31
0.0
  0
LINE
  8
0
 62
     0
 10
21.6697
 20
59.9338
 30
0.0
 11
21.6697
 21
73.9331
 31
0.0
  0
LINE
  8
0
 62
     0
 10
40.7197
 20
73.9331
 30
0.0
 11
54.719
 21
73.9331
 31
0.0
  0
LINE
  8
0
 62
     0
 10
54.719
 20
73.9331
 30
0.0
 11
54.719
 21
59.9338
 31
0.0
  0
LINE
  8
0
 62
     0
 10
54.719
 20
59.9338
 30
0.0
 11
40.7197
 21
59.9338
 31
0.0
  0
LINE
  8
0
 62
     0
 10
40.7197
 20
59.9338
 30
0.0
 11
40.7197
 21
73.9331
 31
0.0
  0
LINE
  8
0
 62
     0
 10
59.7697
 20
73.9331
 30
0.0
 11
73.769
 21
73.9331
 31
0.0
  0
LINE
  8
0
 62
     0
 10
73.769
 20
73.9331
 30
0.0
 11
73.769
 21
59.9338
 31
0.0
  0
LINE
  8
0
 62
     0
 10
73.769
 20
59.9338
 30
0.0
 11
59.7697
 21
59.9338
 31
0.0
  0
LINE
  8
0
 62
     0
 10
59.7697
 20
59.9338
 30
0.0
 11
59.7697
 21
73.9331
 31
0.0
  0
LINE
  8
0
 62
     0
 10
78.8197
 20
73.9331
 30
0.0
 11
92.819
 21
73.9331
 31
0.0
  0
LINE
  8
0
 62
     0
 10
92.819
 20
73.9331
 30
0.0
 11
92.819
 21
59.9338
 31
0.0
  0
LINE
  8
0
 62
     0
 10
92.819
 20
59.9338
 30
0.0
 11
78.8197
 21
59.9338
 31
0.0
  0
LINE
  8
0
 62
     0
 10
78.8197
 20
59.9338
 30
0.0
 11
78.8197
 21
73.9331
 31
0.0
  0
LINE
  8
0
 62
     0
 10
97.8683
 20
73.9331
 30
0.0
 11
111.869
 21
73.9331
 31
0.0
  0
LINE
  8
0
 62
     0
 10
111.869
 20
73.9331
 30
0.0
 11
111.869
 21
59.9338
 31
0.0
  0
LINE
  8
0
 62
     0
 10
111.869
 20
59.9338
 30
0.0
 11
97.8683
 21
59.9338
 31
0.0
  0
LINE
  8
0
 62
     0
 10
97.8683
 20
59.9338
 30
0.0
 11
97.8683
 21
73.9331
 31
0.0
  0
LINE
  8
0
 62
     0
 10
2.61965
 20
92.9831
 30
0.0
 11
16.6192
 21
92.9831
 31
0.0
  0
LINE
  8
0
 62
     0
 10
16.6192
 20
92.9831
 30
0.0
 11
16.6192
 21
78.9838
 31
0.0
  0
LINE
  8
0
 62
     0
 10
16.6192
 20
78.9838
 30
0.0
 11
2.61965
 21
78.9838
 31
0.0
  0
LINE
  8
0
 62
     0
 10
2.61965
 20
78.9838
 30
0.0
 11
2.61965
 21
92.9831
 31
0.0
  0
LINE
  8
0
 62
     0
 10
21.6697
 20
92.9831
 30
0.0
 11
35.669
 21
92.9831
 31
0.0
  0
LINE
  8
0
 62
     0
 10
35.669
 20
92.9831
 30
0.0
 11
35.669
 21
78.9838
 31
0.0
  0
LINE
  8
0
 62
     0
 10
35.669
 20
78.9838
 30
0.0
 11
21.6697
 21
78.9838
 31
0.0
  0
LINE
  8
0
 62
     0
 10
21.6697
 20
78.9838
 30
0.0
 11
21.6697
 21
92.9831
 31
0.0
  0
LINE
  8
0
 62
     0
 10
40.7197
 20
92.9831
 30
0.0
 11
54.719
 21
92.9831
 31
0.0
  0
LINE
  8
0
 62
     0
 10
54.719
 20
92.9831
 30
0.0
 11
54.719
 21
78.9838
 31
0.0
  0
LINE
  8
0
 62
     0
 10
54.719
 20
78.9838
 30
0.0
 11
40.7197
 21
78.9838
 31
0.0
  0
LINE
  8
0
 62
     0
 10
40.7197
 20
78.9838
 30
0.0
 11
40.7197
 21
92.9831
 31
0.0
  0
LINE
  8
0
 62
     0
 10
59.7697
 20
92.9831
 30
0.0
 11
73.769
 21
92.9831
 31
0.0
  0
LINE
  8
0
 62
     0
 10
73.769
 20
92.9831
 30
0.0
 11
73.769
 21
78.9838
 31
0.0
  0
LINE
  8
0
 62
     0
 10
73.769
 20
78.9838
 30
0.0
 11
59.7697
 21
78.9838
 31
0.0
  0
LINE
  8
0
 62
     0
 10
59.7697
 20
78.9838
 30
0.0
 11
59.7697
 21
92.9831
 31
0.0
  0
LINE
  8
0
 62
     0
 10
78.8197
 20
92.9831
 30
0.0
 11
92.819
 21
92.9831
 31
0.0
  0
LINE
  8
0
 62
     0
 10
92.819
 20
92.9831
 30
0.0
 11
92.819
 21
78.9838
 31
0.0
  0
LINE
  8
0
 62
     0
 10
92.819
 20
78.9838
 30
0.0
 11
78.8197
 21
78.9838
 31
0.0
  0
LINE
  8
0
 62
     0
 10
78.8197
 20
78.9838
 30
0.0
 11
78.8197
 21
92.9831
 31
0.0
  0
LINE
  8
0
 62
     0
 10
97.8683
 20
92.9831
 30
0.0
 11
111.869
 21
92.9831
 31
0.0
  0
LINE
  8
0
 62
     0
 10
111.869
 20
92.9831
 30
0.0
 11
111.869
 21
78.9838
 31
0.0
  0
LINE
  8
0
 62
     0
 10
111.869
 20
78.9838
 30
0.0
 11
97.8683
 21
78.9838
 31
0.0
  0
LINE
  8
0
 62
     0
 10
97.8683
 20
78.9838
 30
0.0
 11
97.8683
 21
92.9831
 31
0.0
  0
ENDSEC
  0
EOF
