  0
SECTION
  2
HEADER
  9
$ACADVER
  1
AC1009
  9
$FILLMODE
 70
 0
  9
$SPLFRAME
 70
 1
  9
$EXTMIN
 10
0
 20
0
 30
0.0
  9
$EXTMAX
 10
1058.33
 20
1058.33
 30
0.0
  0
ENDSEC
  0
SECTION
  2
TABLES
  0
TABLE
  2
LAYER
 70
1
  0
LAYER
  2
0
 70
     0
 62
     7
  6
CONTINUOUS
  0
ENDTAB
  0
ENDSEC
  0
SECTION
  2
ENTITIES
  0
LINE
  8
0
 62
     0
 10
0.0950846
 20
95.5075
 30
0.0
 11
152.495
 21
95.5075
 31
0.0
  0
LINE
  8
0
 62
     0
 10
152.495
 20
95.5075
 30
0.0
 11
152.495
 21
0.257693
 31
0.0
  0
LINE
  8
0
 62
     0
 10
152.495
 20
0.257693
 30
0.0
 11
0.0950846
 21
0.257693
 31
0.0
  0
LINE
  8
0
 62
     0
 10
0.0950846
 20
0.257693
 30
0.0
 11
0.0950846
 21
95.5075
 31
0.0
  0
LINE
  8
0
 62
     0
 10
14.5259
 20
16.7831
 30
0.0
 11
14.5259
 21
12.0826
 31
0.0
  0
LINE
  8
0
 62
     0
 10
14.5259
 20
12.0826
 30
0.0
 11
13.0004
 21
12.0826
 31
0.0
  0
LINE
  8
0
 62
     0
 10
13.0004
 20
12.0826
 30
0.0
 11
13.0004
 21
15.3128
 31
0.0
  0
LINE
  8
0
 62
     0
 10
13.0004
 20
15.3128
 30
0.0
 11
6.2508
 21
15.3128
 31
0.0
  0
LINE
  8
0
 62
     0
 10
6.2508
 20
15.3128
 30
0.0
 11
6.2508
 21
12.0826
 31
0.0
  0
LINE
  8
0
 62
     0
 10
6.2508
 20
12.0826
 30
0.0
 11
5.42533
 21
12.0826
 31
0.0
  0
LINE
  8
0
 62
     0
 10
5.42533
 20
12.0826
 30
0.0
 11
5.42533
 21
9.28384
 31
0.0
  0
LINE
  8
0
 62
     0
 10
5.42533
 20
9.28384
 30
0.0
 11
6.2508
 21
9.28384
 31
0.0
  0
LINE
  8
0
 62
     0
 10
6.2508
 20
9.28384
 30
0.0
 11
6.2508
 21
3.01377
 31
0.0
  0
LINE
  8
0
 62
     0
 10
6.2508
 20
3.01377
 30
0.0
 11
7.97609
 21
3.01377
 31
0.0
  0
LINE
  8
0
 62
     0
 10
7.97609
 20
3.01377
 30
0.0
 11
7.97609
 21
1.8135
 31
0.0
  0
LINE
  8
0
 62
     0
 10
7.97609
 20
1.8135
 30
0.0
 11
11.2751
 21
1.8135
 31
0.0
  0
LINE
  8
0
 62
     0
 10
11.2751
 20
1.8135
 30
0.0
 11
11.2751
 21
3.01377
 31
0.0
  0
LINE
  8
0
 62
     0
 10
11.2751
 20
3.01377
 30
0.0
 11
13.0004
 21
3.01377
 31
0.0
  0
LINE
  8
0
 62
     0
 10
13.0004
 20
3.01377
 30
0.0
 11
13.0004
 21
7.48411
 31
0.0
  0
LINE
  8
0
 62
     0
 10
13.0004
 20
7.48411
 30
0.0
 11
14.5259
 21
7.48411
 31
0.0
  0
LINE
  8
0
 62
     0
 10
14.5259
 20
7.48411
 30
0.0
 11
14.5259
 21
2.78364
 31
0.0
  0
LINE
  8
0
 62
     0
 10
14.5259
 20
2.78364
 30
0.0
 11
28.5254
 21
2.78364
 31
0.0
  0
LINE
  8
0
 62
     0
 10
28.5254
 20
2.78364
 30
0.0
 11
28.5254
 21
7.48411
 31
0.0
  0
LINE
  8
0
 62
     0
 10
28.5254
 20
7.48411
 30
0.0
 11
30.0509
 21
7.48411
 31
0.0
  0
LINE
  8
0
 62
     0
 10
30.0509
 20
7.48411
 30
0.0
 11
30.0509
 21
3.01377
 31
0.0
  0
LINE
  8
0
 62
     0
 10
30.0509
 20
3.01377
 30
0.0
 11
31.7748
 21
3.01377
 31
0.0
  0
LINE
  8
0
 62
     0
 10
31.7748
 20
3.01377
 30
0.0
 11
31.7748
 21
1.8135
 31
0.0
  0
LINE
  8
0
 62
     0
 10
31.7748
 20
1.8135
 30
0.0
 11
35.0752
 21
1.8135
 31
0.0
  0
LINE
  8
0
 62
     0
 10
35.0752
 20
1.8135
 30
0.0
 11
35.0752
 21
3.01377
 31
0.0
  0
LINE
  8
0
 62
     0
 10
35.0752
 20
3.01377
 30
0.0
 11
36.8004
 21
3.01377
 31
0.0
  0
LINE
  8
0
 62
     0
 10
36.8004
 20
3.01377
 30
0.0
 11
36.8004
 21
9.28384
 31
0.0
  0
LINE
  8
0
 62
     0
 10
36.8004
 20
9.28384
 30
0.0
 11
37.6259
 21
9.28384
 31
0.0
  0
LINE
  8
0
 62
     0
 10
37.6259
 20
9.28384
 30
0.0
 11
37.6259
 21
12.0826
 31
0.0
  0
LINE
  8
0
 62
     0
 10
37.6259
 20
12.0826
 30
0.0
 11
36.8004
 21
12.0826
 31
0.0
  0
LINE
  8
0
 62
     0
 10
36.8004
 20
12.0826
 30
0.0
 11
36.8004
 21
15.3128
 31
0.0
  0
LINE
  8
0
 62
     0
 10
36.8004
 20
15.3128
 30
0.0
 11
30.0509
 21
15.3128
 31
0.0
  0
LINE
  8
0
 62
     0
 10
30.0509
 20
15.3128
 30
0.0
 11
30.0509
 21
12.0826
 31
0.0
  0
LINE
  8
0
 62
     0
 10
30.0509
 20
12.0826
 30
0.0
 11
28.5254
 21
12.0826
 31
0.0
  0
LINE
  8
0
 62
     0
 10
28.5254
 20
12.0826
 30
0.0
 11
28.5254
 21
16.7831
 31
0.0
  0
LINE
  8
0
 62
     0
 10
28.5254
 20
16.7831
 30
0.0
 11
14.5259
 21
16.7831
 31
0.0
  0
LINE
  8
0
 62
     0
 10
47.8621
 20
16.7831
 30
0.0
 11
61.8628
 21
16.7831
 31
0.0
  0
LINE
  8
0
 62
     0
 10
61.8628
 20
16.7831
 30
0.0
 11
61.8628
 21
2.78364
 31
0.0
  0
LINE
  8
0
 62
     0
 10
61.8628
 20
2.78364
 30
0.0
 11
47.8621
 21
2.78364
 31
0.0
  0
LINE
  8
0
 62
     0
 10
47.8621
 20
2.78364
 30
0.0
 11
47.8621
 21
16.7831
 31
0.0
  0
LINE
  8
0
 62
     0
 10
71.676
 20
16.7831
 30
0.0
 11
85.6753
 21
16.7831
 31
0.0
  0
LINE
  8
0
 62
     0
 10
85.6753
 20
16.7831
 30
0.0
 11
85.6753
 21
2.78364
 31
0.0
  0
LINE
  8
0
 62
     0
 10
85.6753
 20
2.78364
 30
0.0
 11
71.676
 21
2.78364
 31
0.0
  0
LINE
  8
0
 62
     0
 10
71.676
 20
2.78364
 30
0.0
 11
71.676
 21
16.7831
 31
0.0
  0
LINE
  8
0
 62
     0
 10
93.1072
 20
16.7831
 30
0.0
 11
107.107
 21
16.7831
 31
0.0
  0
LINE
  8
0
 62
     0
 10
107.107
 20
16.7831
 30
0.0
 11
107.107
 21
2.78364
 31
0.0
  0
LINE
  8
0
 62
     0
 10
107.107
 20
2.78364
 30
0.0
 11
93.1072
 21
2.78364
 31
0.0
  0
LINE
  8
0
 62
     0
 10
93.1072
 20
2.78364
 30
0.0
 11
93.1072
 21
16.7831
 31
0.0
  0
LINE
  8
0
 62
     0
 10
112.157
 20
16.7831
 30
0.0
 11
126.157
 21
16.7831
 31
0.0
  0
LINE
  8
0
 62
     0
 10
126.157
 20
16.7831
 30
0.0
 11
126.157
 21
2.78364
 31
0.0
  0
LINE
  8
0
 62
     0
 10
126.157
 20
2.78364
 30
0.0
 11
112.157
 21
2.78364
 31
0.0
  0
LINE
  8
0
 62
     0
 10
112.157
 20
2.78364
 30
0.0
 11
112.157
 21
16.7831
 31
0.0
  0
LINE
  8
0
 62
     0
 10
131.207
 20
16.7831
 30
0.0
 11
145.207
 21
16.7831
 31
0.0
  0
LINE
  8
0
 62
     0
 10
145.207
 20
16.7831
 30
0.0
 11
145.207
 21
2.78364
 31
0.0
  0
LINE
  8
0
 62
     0
 10
145.207
 20
2.78364
 30
0.0
 11
131.207
 21
2.78364
 31
0.0
  0
LINE
  8
0
 62
     0
 10
131.207
 20
2.78364
 30
0.0
 11
131.207
 21
16.7831
 31
0.0
  0
LINE
  8
0
 62
     0
 10
16.9072
 20
35.833
 30
0.0
 11
30.9066
 21
35.833
 31
0.0
  0
LINE
  8
0
 62
     0
 10
30.9066
 20
35.833
 30
0.0
 11
30.9066
 21
21.8336
 31
0.0
  0
LINE
  8
0
 62
     0
 10
30.9066
 20
21.8336
 30
0.0
 11
16.9072
 21
21.8336
 31
0.0
  0
LINE
  8
0
 62
     0
 10
16.9072
 20
21.8336
 30
0.0
 11
16.9072
 21
35.833
 31
0.0
  0
LINE
  8
0
 62
     0
 10
35.9572
 20
35.833
 30
0.0
 11
49.9565
 21
35.833
 31
0.0
  0
LINE
  8
0
 62
     0
 10
49.9565
 20
35.833
 30
0.0
 11
49.9565
 21
21.8336
 31
0.0
  0
LINE
  8
0
 62
     0
 10
49.9565
 20
21.8336
 30
0.0
 11
35.9572
 21
21.8336
 31
0.0
  0
LINE
  8
0
 62
     0
 10
35.9572
 20
21.8336
 30
0.0
 11
35.9572
 21
35.833
 31
0.0
  0
LINE
  8
0
 62
     0
 10
55.0072
 20
35.833
 30
0.0
 11
69.0065
 21
35.833
 31
0.0
  0
LINE
  8
0
 62
     0
 10
69.0065
 20
35.833
 30
0.0
 11
69.0065
 21
21.8336
 31
0.0
  0
LINE
  8
0
 62
     0
 10
69.0065
 20
21.8336
 30
0.0
 11
55.0072
 21
21.8336
 31
0.0
  0
LINE
  8
0
 62
     0
 10
55.0072
 20
21.8336
 30
0.0
 11
55.0072
 21
35.833
 31
0.0
  0
LINE
  8
0
 62
     0
 10
74.0572
 20
35.833
 30
0.0
 11
88.0565
 21
35.833
 31
0.0
  0
LINE
  8
0
 62
     0
 10
88.0565
 20
35.833
 30
0.0
 11
88.0565
 21
21.8336
 31
0.0
  0
LINE
  8
0
 62
     0
 10
88.0565
 20
21.8336
 30
0.0
 11
74.0572
 21
21.8336
 31
0.0
  0
LINE
  8
0
 62
     0
 10
74.0572
 20
21.8336
 30
0.0
 11
74.0572
 21
35.833
 31
0.0
  0
LINE
  8
0
 62
     0
 10
93.1072
 20
35.833
 30
0.0
 11
107.107
 21
35.833
 31
0.0
  0
LINE
  8
0
 62
     0
 10
107.107
 20
35.833
 30
0.0
 11
107.107
 21
21.8336
 31
0.0
  0
LINE
  8
0
 62
     0
 10
107.107
 20
21.8336
 30
0.0
 11
93.1072
 21
21.8336
 31
0.0
  0
LINE
  8
0
 62
     0
 10
93.1072
 20
21.8336
 30
0.0
 11
93.1072
 21
35.833
 31
0.0
  0
LINE
  8
0
 62
     0
 10
112.157
 20
35.833
 30
0.0
 11
126.157
 21
35.833
 31
0.0
  0
LINE
  8
0
 62
     0
 10
126.157
 20
35.833
 30
0.0
 11
126.157
 21
21.8336
 31
0.0
  0
LINE
  8
0
 62
     0
 10
126.157
 20
21.8336
 30
0.0
 11
112.157
 21
21.8336
 31
0.0
  0
LINE
  8
0
 62
     0
 10
112.157
 20
21.8336
 30
0.0
 11
112.157
 21
35.833
 31
0.0
  0
LINE
  8
0
 62
     0
 10
131.207
 20
35.833
 30
0.0
 11
145.207
 21
35.833
 31
0.0
  0
LINE
  8
0
 62
     0
 10
145.207
 20
35.833
 30
0.0
 11
145.207
 21
21.8336
 31
0.0
  0
LINE
  8
0
 62
     0
 10
145.207
 20
21.8336
 30
0.0
 11
131.207
 21
21.8336
 31
0.0
  0
LINE
  8
0
 62
     0
 10
131.207
 20
21.8336
 30
0.0
 11
131.207
 21
35.833
 31
0.0
  0
LINE
  8
0
 62
     0
 10
7.38216
 20
54.8831
 30
0.0
 11
21.3817
 21
54.8831
 31
0.0
  0
LINE
  8
0
 62
     0
 10
21.3817
 20
54.8831
 30
0.0
 11
21.3817
 21
40.8838
 31
0.0
  0
LINE
  8
0
 62
     0
 10
21.3817
 20
40.8838
 30
0.0
 11
7.38216
 21
40.8838
 31
0.0
  0
LINE
  8
0
 62
     0
 10
7.38216
 20
40.8838
 30
0.0
 11
7.38216
 21
54.8831
 31
0.0
  0
LINE
  8
0
 62
     0
 10
26.4322
 20
54.8831
 30
0.0
 11
40.4315
 21
54.8831
 31
0.0
  0
LINE
  8
0
 62
     0
 10
40.4315
 20
54.8831
 30
0.0
 11
40.4315
 21
40.8838
 31
0.0
  0
LINE
  8
0
 62
     0
 10
40.4315
 20
40.8838
 30
0.0
 11
26.4322
 21
40.8838
 31
0.0
  0
LINE
  8
0
 62
     0
 10
26.4322
 20
40.8838
 30
0.0
 11
26.4322
 21
54.8831
 31
0.0
  0
LINE
  8
0
 62
     0
 10
45.4822
 20
54.8831
 30
0.0
 11
59.4815
 21
54.8831
 31
0.0
  0
LINE
  8
0
 62
     0
 10
59.4815
 20
54.8831
 30
0.0
 11
59.4815
 21
40.8838
 31
0.0
  0
LINE
  8
0
 62
     0
 10
59.4815
 20
40.8838
 30
0.0
 11
45.4822
 21
40.8838
 31
0.0
  0
LINE
  8
0
 62
     0
 10
45.4822
 20
40.8838
 30
0.0
 11
45.4822
 21
54.8831
 31
0.0
  0
LINE
  8
0
 62
     0
 10
64.5322
 20
54.8831
 30
0.0
 11
78.5315
 21
54.8831
 31
0.0
  0
LINE
  8
0
 62
     0
 10
78.5315
 20
54.8831
 30
0.0
 11
78.5315
 21
40.8838
 31
0.0
  0
LINE
  8
0
 62
     0
 10
78.5315
 20
40.8838
 30
0.0
 11
64.5322
 21
40.8838
 31
0.0
  0
LINE
  8
0
 62
     0
 10
64.5322
 20
40.8838
 30
0.0
 11
64.5322
 21
54.8831
 31
0.0
  0
LINE
  8
0
 62
     0
 10
83.5822
 20
54.8831
 30
0.0
 11
97.5815
 21
54.8831
 31
0.0
  0
LINE
  8
0
 62
     0
 10
97.5815
 20
54.8831
 30
0.0
 11
97.5815
 21
40.8838
 31
0.0
  0
LINE
  8
0
 62
     0
 10
97.5815
 20
40.8838
 30
0.0
 11
83.5822
 21
40.8838
 31
0.0
  0
LINE
  8
0
 62
     0
 10
83.5822
 20
40.8838
 30
0.0
 11
83.5822
 21
54.8831
 31
0.0
  0
LINE
  8
0
 62
     0
 10
102.632
 20
54.8831
 30
0.0
 11
116.632
 21
54.8831
 31
0.0
  0
LINE
  8
0
 62
     0
 10
116.632
 20
54.8831
 30
0.0
 11
116.632
 21
40.8838
 31
0.0
  0
LINE
  8
0
 62
     0
 10
116.632
 20
40.8838
 30
0.0
 11
102.632
 21
40.8838
 31
0.0
  0
LINE
  8
0
 62
     0
 10
102.632
 20
40.8838
 30
0.0
 11
102.632
 21
54.8831
 31
0.0
  0
LINE
  8
0
 62
     0
 10
128.826
 20
54.8831
 30
0.0
 11
142.825
 21
54.8831
 31
0.0
  0
LINE
  8
0
 62
     0
 10
142.825
 20
54.8831
 30
0.0
 11
142.825
 21
40.8838
 31
0.0
  0
LINE
  8
0
 62
     0
 10
142.825
 20
40.8838
 30
0.0
 11
128.826
 21
40.8838
 31
0.0
  0
LINE
  8
0
 62
     0
 10
128.826
 20
40.8838
 30
0.0
 11
128.826
 21
54.8831
 31
0.0
  0
LINE
  8
0
 62
     0
 10
2.61965
 20
73.9331
 30
0.0
 11
16.6192
 21
73.9331
 31
0.0
  0
LINE
  8
0
 62
     0
 10
16.6192
 20
73.9331
 30
0.0
 11
16.6192
 21
59.9338
 31
0.0
  0
LINE
  8
0
 62
     0
 10
16.6192
 20
59.9338
 30
0.0
 11
2.61965
 21
59.9338
 31
0.0
  0
LINE
  8
0
 62
     0
 10
2.61965
 20
59.9338
 30
0.0
 11
2.61965
 21
73.9331
 31
0.0
  0
LINE
  8
0
 62
     0
 10
21.6697
 20
73.9331
 30
0.0
 11
35.669
 21
73.9331
 31
0.0
  0
LINE
  8
0
 62
     0
 10
35.669
 20
73.9331
 30
0.0
 11
35.669
 21
59.9338
 31
0.0
  0
LINE
  8
0
 62
     0
 10
35.669
 20
59.9338
 30
0.0
 11
21.6697
 21
59.9338
 31
0.0
  0
LINE
  8
0
 62
     0
 10
21.6697
 20
59.9338
 30
0.0
 11
21.6697
 21
73.9331
 31
0.0
  0
LINE
  8
0
 62
     0
 10
40.7197
 20
73.9331
 30
0.0
 11
54.719
 21
73.9331
 31
0.0
  0
LINE
  8
0
 62
     0
 10
54.719
 20
73.9331
 30
0.0
 11
54.719
 21
59.9338
 31
0.0
  0
LINE
  8
0
 62
     0
 10
54.719
 20
59.9338
 30
0.0
 11
40.7197
 21
59.9338
 31
0.0
  0
LINE
  8
0
 62
     0
 10
40.7197
 20
59.9338
 30
0.0
 11
40.7197
 21
73.9331
 31
0.0
  0
LINE
  8
0
 62
     0
 10
59.7697
 20
73.9331
 30
0.0
 11
73.769
 21
73.9331
 31
0.0
  0
LINE
  8
0
 62
     0
 10
73.769
 20
73.9331
 30
0.0
 11
73.769
 21
59.9338
 31
0.0
  0
LINE
  8
0
 62
     0
 10
73.769
 20
59.9338
 30
0.0
 11
59.7697
 21
59.9338
 31
0.0
  0
LINE
  8
0
 62
     0
 10
59.7697
 20
59.9338
 30
0.0
 11
59.7697
 21
73.9331
 31
0.0
  0
LINE
  8
0
 62
     0
 10
78.8197
 20
73.9331
 30
0.0
 11
92.819
 21
73.9331
 31
0.0
  0
LINE
  8
0
 62
     0
 10
92.819
 20
73.9331
 30
0.0
 11
92.819
 21
59.9338
 31
0.0
  0
LINE
  8
0
 62
     0
 10
92.819
 20
59.9338
 30
0.0
 11
78.8197
 21
59.9338
 31
0.0
  0
LINE
  8
0
 62
     0
 10
78.8197
 20
59.9338
 30
0.0
 11
78.8197
 21
73.9331
 31
0.0
  0
LINE
  8
0
 62
     0
 10
97.8683
 20
73.9331
 30
0.0
 11
111.869
 21
73.9331
 31
0.0
  0
LINE
  8
0
 62
     0
 10
111.869
 20
73.9331
 30
0.0
 11
111.869
 21
59.9338
 31
0.0
  0
LINE
  8
0
 62
     0
 10
111.869
 20
59.9338
 30
0.0
 11
97.8683
 21
59.9338
 31
0.0
  0
LINE
  8
0
 62
     0
 10
97.8683
 20
59.9338
 30
0.0
 11
97.8683
 21
73.9331
 31
0.0
  0
LINE
  8
0
 62
     0
 10
116.918
 20
73.9331
 30
0.0
 11
130.919
 21
73.9331
 31
0.0
  0
LINE
  8
0
 62
     0
 10
130.919
 20
73.9331
 30
0.0
 11
130.919
 21
59.9338
 31
0.0
  0
LINE
  8
0
 62
     0
 10
130.919
 20
59.9338
 30
0.0
 11
116.918
 21
59.9338
 31
0.0
  0
LINE
  8
0
 62
     0
 10
116.918
 20
59.9338
 30
0.0
 11
116.918
 21
73.9331
 31
0.0
  0
LINE
  8
0
 62
     0
 10
135.97
 20
73.9331
 30
0.0
 11
149.969
 21
73.9331
 31
0.0
  0
LINE
  8
0
 62
     0
 10
149.969
 20
73.9331
 30
0.0
 11
149.969
 21
59.9338
 31
0.0
  0
LINE
  8
0
 62
     0
 10
149.969
 20
59.9338
 30
0.0
 11
135.97
 21
59.9338
 31
0.0
  0
LINE
  8
0
 62
     0
 10
135.97
 20
59.9338
 30
0.0
 11
135.97
 21
73.9331
 31
0.0
  0
LINE
  8
0
 62
     0
 10
2.61965
 20
92.9831
 30
0.0
 11
16.6192
 21
92.9831
 31
0.0
  0
LINE
  8
0
 62
     0
 10
16.6192
 20
92.9831
 30
0.0
 11
16.6192
 21
78.9838
 31
0.0
  0
LINE
  8
0
 62
     0
 10
16.6192
 20
78.9838
 30
0.0
 11
2.61965
 21
78.9838
 31
0.0
  0
LINE
  8
0
 62
     0
 10
2.61965
 20
78.9838
 30
0.0
 11
2.61965
 21
92.9831
 31
0.0
  0
LINE
  8
0
 62
     0
 10
21.6697
 20
92.9831
 30
0.0
 11
35.669
 21
92.9831
 31
0.0
  0
LINE
  8
0
 62
     0
 10
35.669
 20
92.9831
 30
0.0
 11
35.669
 21
78.9838
 31
0.0
  0
LINE
  8
0
 62
     0
 10
35.669
 20
78.9838
 30
0.0
 11
21.6697
 21
78.9838
 31
0.0
  0
LINE
  8
0
 62
     0
 10
21.6697
 20
78.9838
 30
0.0
 11
21.6697
 21
92.9831
 31
0.0
  0
LINE
  8
0
 62
     0
 10
40.7197
 20
92.9831
 30
0.0
 11
54.719
 21
92.9831
 31
0.0
  0
LINE
  8
0
 62
     0
 10
54.719
 20
92.9831
 30
0.0
 11
54.719
 21
78.9838
 31
0.0
  0
LINE
  8
0
 62
     0
 10
54.719
 20
78.9838
 30
0.0
 11
40.7197
 21
78.9838
 31
0.0
  0
LINE
  8
0
 62
     0
 10
40.7197
 20
78.9838
 30
0.0
 11
40.7197
 21
92.9831
 31
0.0
  0
LINE
  8
0
 62
     0
 10
59.7697
 20
92.9831
 30
0.0
 11
73.769
 21
92.9831
 31
0.0
  0
LINE
  8
0
 62
     0
 10
73.769
 20
92.9831
 30
0.0
 11
73.769
 21
78.9838
 31
0.0
  0
LINE
  8
0
 62
     0
 10
73.769
 20
78.9838
 30
0.0
 11
59.7697
 21
78.9838
 31
0.0
  0
LINE
  8
0
 62
     0
 10
59.7697
 20
78.9838
 30
0.0
 11
59.7697
 21
92.9831
 31
0.0
  0
LINE
  8
0
 62
     0
 10
78.8197
 20
92.9831
 30
0.0
 11
92.819
 21
92.9831
 31
0.0
  0
LINE
  8
0
 62
     0
 10
92.819
 20
92.9831
 30
0.0
 11
92.819
 21
78.9838
 31
0.0
  0
LINE
  8
0
 62
     0
 10
92.819
 20
78.9838
 30
0.0
 11
78.8197
 21
78.9838
 31
0.0
  0
LINE
  8
0
 62
     0
 10
78.8197
 20
78.9838
 30
0.0
 11
78.8197
 21
92.9831
 31
0.0
  0
LINE
  8
0
 62
     0
 10
97.8683
 20
92.9831
 30
0.0
 11
111.869
 21
92.9831
 31
0.0
  0
LINE
  8
0
 62
     0
 10
111.869
 20
92.9831
 30
0.0
 11
111.869
 21
78.9838
 31
0.0
  0
LINE
  8
0
 62
     0
 10
111.869
 20
78.9838
 30
0.0
 11
97.8683
 21
78.9838
 31
0.0
  0
LINE
  8
0
 62
     0
 10
97.8683
 20
78.9838
 30
0.0
 11
97.8683
 21
92.9831
 31
0.0
  0
LINE
  8
0
 62
     0
 10
116.918
 20
92.9831
 30
0.0
 11
130.919
 21
92.9831
 31
0.0
  0
LINE
  8
0
 62
     0
 10
130.919
 20
92.9831
 30
0.0
 11
130.919
 21
78.9838
 31
0.0
  0
LINE
  8
0
 62
     0
 10
130.919
 20
78.9838
 30
0.0
 11
116.918
 21
78.9838
 31
0.0
  0
LINE
  8
0
 62
     0
 10
116.918
 20
78.9838
 30
0.0
 11
116.918
 21
92.9831
 31
0.0
  0
LINE
  8
0
 62
     0
 10
135.97
 20
92.9831
 30
0.0
 11
149.969
 21
92.9831
 31
0.0
  0
LINE
  8
0
 62
     0
 10
149.969
 20
92.9831
 30
0.0
 11
149.969
 21
78.9838
 31
0.0
  0
LINE
  8
0
 62
     0
 10
149.969
 20
78.9838
 30
0.0
 11
135.97
 21
78.9838
 31
0.0
  0
LINE
  8
0
 62
     0
 10
135.97
 20
78.9838
 30
0.0
 11
135.97
 21
92.9831
 31
0.0
  0
ENDSEC
  0
EOF
